<svg xmlns="http://www.w3.org/2000/svg" viewBox="0 0 24 24" width="24" height="24" fill="none" aria-label="自然绿意">
  <path d="M12.9999.0712891V11.0004h6v-4c0-3.52647-2.6077-6.443881-6-6.9291109Z" fill="url(#g0)"/>
  <path d="M23.929 13.0004H12.9999v6h4c3.5265 0 6.4439-2.6077 6.9291-6Z" fill="url(#g1)"/>
  <path d="M10.9999 23.9295V13.0004l-5.99999 0v4c0 3.5265 2.60771 6.4439 5.99999 6.9291Z" fill="url(#g2)"/>
  <path d="M.0708008 11.0004H10.9999v-6H6.99991c-3.52647 0-6.443879 2.60771-6.9291092 6Z" fill="url(#g3)"/>
<defs><linearGradient id="g0" x1="0" y1="0" x2="24" y2="24" gradientUnits="userSpaceOnUse"><stop stop-color="#70D53C"/><stop offset="1" stop-color="#42B950"/></linearGradient><linearGradient id="g1" x1="0" y1="0" x2="24" y2="24" gradientUnits="userSpaceOnUse"><stop stop-color="#29D2B4"/><stop offset="1" stop-color="#24BEBB"/></linearGradient><linearGradient id="g2" x1="0" y1="0" x2="24" y2="24" gradientUnits="userSpaceOnUse"><stop stop-color="#35C764"/><stop offset="1" stop-color="#26B659"/></linearGradient><linearGradient id="g3" x1="0" y1="0" x2="24" y2="24" gradientUnits="userSpaceOnUse"><stop stop-color="#A7DD2B"/><stop offset="1" stop-color="#58C83C"/></linearGradient></defs>
</svg>
